<svg width="136" height="136" viewBox="0 0 136 136" fill="none" xmlns="http://www.w3.org/2000/svg">
<path fill-rule="evenodd" clip-rule="evenodd" d="M110.046 85.045C108.498 88.5512 109.241 92.6462 111.921 95.3859L112.262 95.7268C114.395 97.8582 115.594 100.751 115.594 103.767C115.594 106.783 114.395 109.675 112.262 111.806C110.13 113.94 107.238 115.139 104.222 115.139C101.206 115.139 98.3135 113.94 96.1821 111.806L95.8412 111.465C93.1015 108.786 89.0064 108.043 85.5002 109.59C82.0658 111.062 79.8333 114.433 79.8184 118.17V119.136C79.8184 125.412 74.7308 130.5 68.4548 130.5C62.1788 130.5 57.0912 125.412 57.0912 119.136V118.625C57.0011 114.776 54.5677 111.374 50.9548 110.045C47.4486 108.498 43.3536 109.24 40.6139 111.92L40.273 112.261C38.1415 114.395 35.2492 115.594 32.2332 115.594C29.2172 115.594 26.3249 114.395 24.1934 112.261C22.0596 110.129 20.8606 107.237 20.8606 104.221C20.8606 101.205 22.0596 98.3128 24.1934 96.1813L24.5343 95.8404C27.2143 93.1007 27.9568 89.0057 26.4093 85.4995C24.9374 82.065 21.5664 79.8326 17.8298 79.8177H16.8639C10.5879 79.8177 5.50024 74.73 5.50024 68.4541C5.50024 62.1781 10.5879 57.0904 16.8639 57.0904H17.3752C21.2237 57.0004 24.626 54.567 25.9548 50.9541C27.5022 47.4479 26.7597 43.3528 24.0798 40.6131L23.7389 40.2722C21.6051 38.1408 20.4061 35.2485 20.4061 32.2325C20.4061 29.2165 21.6051 26.3242 23.7389 24.1927C25.8703 22.0589 28.7626 20.8599 31.7787 20.8599C34.7947 20.8599 37.687 22.0589 39.8184 24.1927L40.1593 24.5336C42.899 27.2135 46.9941 27.956 50.5002 26.4086H50.9548C54.3893 24.9366 56.6217 21.5657 56.6366 17.8291V16.8631C56.6366 10.5872 61.7243 5.49951 68.0002 5.49951C74.2762 5.49951 79.3639 10.5872 79.3639 16.8631V17.3745C79.3788 21.1111 81.6112 24.4821 85.0457 25.9541C88.5519 27.5015 92.6469 26.759 95.3866 24.0791L95.7275 23.7381C97.859 21.6043 100.751 20.4053 103.767 20.4053C106.783 20.4053 109.676 21.6043 111.807 23.7381C113.941 25.8696 115.14 28.7619 115.14 31.7779C115.14 34.7939 113.941 37.6862 111.807 39.8177L111.466 40.1586C108.786 42.8983 108.044 46.9933 109.591 50.4995V50.9541C111.063 54.3886 114.434 56.621 118.171 56.6359H119.137C125.413 56.6359 130.5 61.7236 130.5 67.9995C130.5 74.2755 125.413 79.3632 119.137 79.3632H118.625C114.889 79.3781 111.518 81.6105 110.046 85.045Z" stroke="#3391FF" stroke-width="10" stroke-linecap="round" stroke-linejoin="round"/>
</svg>
